<?xml version="1.0" encoding="UTF-8" standalone="no"?>
<svg
   xmlns:dc="http://purl.org/dc/elements/1.1/"
   xmlns:cc="http://creativecommons.org/ns#"
   xmlns:rdf="http://www.w3.org/1999/02/22-rdf-syntax-ns#"
   xmlns:svg="http://www.w3.org/2000/svg"
   xmlns="http://www.w3.org/2000/svg"
   xmlns:xlink="http://www.w3.org/1999/xlink"
   xmlns:sodipodi="http://sodipodi.sourceforge.net/DTD/sodipodi-0.dtd"
   xmlns:inkscape="http://www.inkscape.org/namespaces/inkscape"
   width="256"
   height="256"
   viewBox="0 0 256 256"
   version="1.1"
   id="svg8"
   sodipodi:docname="icon.svg"
   inkscape:version="1.0.1 (3bc2e813f5, 2020-09-07)"
   inkscape:export-filename="/mnt/Daten/Projekte/Node.js/schluessel/icon.png"
   inkscape:export-xdpi="450"
   inkscape:export-ydpi="450">
  <sodipodi:namedview
     pagecolor="#ffffff"
     bordercolor="#666666"
     borderopacity="1"
     objecttolerance="10"
     gridtolerance="10"
     guidetolerance="10"
     inkscape:pageopacity="0"
     inkscape:pageshadow="2"
     inkscape:window-width="1680"
     inkscape:window-height="1021"
     id="namedview842"
     showgrid="false"
     inkscape:zoom="3.0976562"
     inkscape:cx="128"
     inkscape:cy="128"
     inkscape:window-x="1680"
     inkscape:window-y="0"
     inkscape:window-maximized="1"
     inkscape:current-layer="svg8"
     inkscape:document-rotation="0" />
  <defs
     id="defs2">
    <linearGradient
       id="linearGradient886">
      <stop
         style="stop-color:#83231f;stop-opacity:1"
         offset="0"
         id="stop882" />
      <stop
         style="stop-color:#ff8d00;stop-opacity:1"
         offset="1"
         id="stop884" />
    </linearGradient>
    <linearGradient
       xlink:href="#linearGradient886"
       id="linearGradient888"
       x1="25"
       y1="145"
       x2="225"
       y2="70"
       gradientUnits="userSpaceOnUse" />
  </defs>
  <metadata
     id="metadata5">
    <rdf:RDF>
      <cc:Work
         rdf:about="">
        <dc:format>image/svg+xml</dc:format>
        <dc:type
           rdf:resource="http://purl.org/dc/dcmitype/StillImage" />
        <dc:title />
      </cc:Work>
    </rdf:RDF>
  </metadata>
  <g
     id="layer1">
    <path
       style="fill:none;stroke:url(#linearGradient888);stroke-width:4;stroke-linecap:round;stroke-linejoin:round;stroke-opacity:1;stroke-miterlimit:4;stroke-dasharray:none"
       d="m 180,110 25.98076,15 25.98076,-15 V 79.999999 L 205.98076,65 180,80 H 30 c -0.03776,-1.43e-4 -0.07552,-1.43e-4 -0.113281,0 C 21.646721,80.062231 14.999765,86.759767 15,95 c 0,8.28427 6.715729,15 15,15 h 10 v 20 c 0,2.76142 2.238576,5 5,5 2.761424,0 5,-2.23858 5,-5 v -20 h 10 v 45 c 0,2.76142 2.238576,5 5,5 2.761424,0 5,-2.23858 5,-5 v -45 h 10 v 10 c 0,2.76142 2.238576,5 5,5 2.761424,0 5,-2.23858 5,-5 v -10 h 10 v 65 c 0,2.76142 2.23858,5 5,5 2.76142,0 5,-2.23858 5,-5 v -65 h 10 v 5 c 0,2.76142 2.23858,5 5,5 2.76142,0 5,-2.23858 5,-5 v -5 h 10 v 30 c 0,2.76142 2.23858,5 5,5 2.76142,0 5,-2.23858 5,-5 v -30 h 10"
       id="path880" />
  </g>
  <g
     aria-label="JS"
     id="text846"
     style="font-style:normal;font-weight:normal;font-size:40px;line-height:1.25;font-family:sans-serif;fill:#000000;fill-opacity:1;stroke:none">
    <path
       d="m 201.82076,87.977022 v 9.472 q 0,2.847998 -2.048,4.639998 -2.048,1.792 -5.024,1.792 -2.688,0 -6.88,-2.08 v -5.183998 q 0,-2.144 1.6,-2.144 1.6,0 1.6,2.144 v 3.072 q 2.208,0.991998 3.744,0.991998 1.76,0 2.784,-0.895998 1.024,-0.896 1.024,-2.688 v -9.12 h -3.808 q -2.112,0 -2.112,-1.6 0,-1.6 2.112,-1.6 h 8.832 q 2.112,0 2.112,1.6 0,1.6 -2.112,1.6 z"
       style="font-style:normal;font-variant:normal;font-weight:bold;font-stretch:normal;font-size:32px;font-family:'Tlwg Mono';-inkscape-font-specification:'Tlwg Mono Bold';fill:#aa0000"
       id="path848" />
    <path
       d="m 221.88471,86.441022 v 2.816 q 0,2.144 -1.568,2.144 -0.352,0 -0.64,-0.096 -0.256,-0.128 -0.416,-0.256 -0.128,-0.128 -0.256,-0.352 -0.128,-0.256 -0.16,-0.384 -0.032,-0.128 -0.096,-0.352 -0.032,-0.256 -0.032,-0.288 -0.224,-0.96 -1.28,-1.536 -1.024,-0.608 -2.528,-0.608 -1.504,0 -2.56,0.704 -1.056,0.704 -1.056,1.728 0,0.64 0.32,1.12 0.352,0.448 1.088,0.736 0.736,0.256 1.184,0.384 0.48,0.128 1.408,0.288 1.216,0.224 2.112,0.48 0.928,0.224 1.952,0.672 1.024,0.448 1.664,1.056 0.672,0.576 1.088,1.504 0.448,0.928 0.448,2.112 0,2.495998 -2.016,4.031998 -2.016,1.536 -5.312,1.536 -2.656,0 -4.992,-1.248 -0.64,0.768 -1.28,0.768 -1.632,0 -1.632,-2.112 v -2.111998 q 0,-2.112 1.6,-2.112 0.224,0 0.416,0.064 0.192,0.032 0.352,0.128 0.16,0.064 0.256,0.16 0.128,0.064 0.192,0.224 0.096,0.128 0.16,0.224 0.064,0.096 0.096,0.224 0.064,0.128 0.064,0.224 0.032,0.064 0.064,0.192 l 0.032,0.096 q 0.224,0.864 1.536,1.471998 1.312,0.608 2.912,0.608 1.792,0 3.008,-0.703998 1.216,-0.704 1.216,-1.728 0,-0.8 -0.704,-1.312 -0.672,-0.544 -1.344,-0.704 -0.672,-0.192 -2.208,-0.48 -0.224,-0.032 -0.32,-0.064 -1.472,-0.288 -2.528,-0.608 -1.024,-0.352 -2.08,-0.96 -1.024,-0.64 -1.568,-1.664 -0.512,-1.056 -0.512,-2.464 0,-2.432 1.984,-4.032 1.984,-1.632 4.96,-1.632 2.464,0 4.16,1.056 0.256,-0.608 0.512,-0.832 0.256,-0.224 0.736,-0.224 1.568,0 1.568,2.112 z"
       style="font-style:normal;font-variant:normal;font-weight:bold;font-stretch:normal;font-size:32px;font-family:'Tlwg Mono';-inkscape-font-specification:'Tlwg Mono Bold';fill:#aa0000"
       id="path850" />
  </g>
</svg>
